<svg width="40" height="40" viewBox="0 0 40 40" fill="none" xmlns="http://www.w3.org/2000/svg">
<path d="M37.9554 32.575L22.1047 5.13503C21.2285 3.62166 19.0381 3.62166 18.162 5.13503L2.31132 32.575C1.43515 34.0884 2.51045 36 4.26279 36H35.9641C37.7562 36 38.8315 34.0884 37.9554 32.575ZM19.6355 13.5383C20.5913 13.2993 21.5472 13.7772 21.9852 14.6534C22.1445 14.972 22.1844 15.3304 22.1445 15.649C22.0649 16.6447 22.0251 17.6403 21.9852 18.6758C21.9056 20.229 21.7861 21.822 21.7065 23.3752C21.6666 23.8531 21.6666 24.3311 21.6268 24.8488C21.587 25.6851 20.9498 26.3223 20.1134 26.3223C19.3169 26.3223 18.6399 25.6851 18.6001 24.8886C18.4806 22.4592 18.3213 20.0299 18.2018 17.6005C18.162 16.9633 18.1221 16.2862 18.0823 15.649C18.0823 14.6932 18.7195 13.7772 19.6355 13.5383ZM20.1533 31.7785C19.0381 31.7785 18.162 30.8625 18.162 29.7474C18.162 28.6322 19.078 27.7162 20.1931 27.7162C21.3082 27.7162 22.1844 28.6322 22.1844 29.7872C22.1445 30.8625 21.2286 31.7785 20.1533 31.7785Z" fill="white"/>
</svg>
